<svg width="262" height="54" viewBox="0 0 262 54" fill="none" xmlns="http://www.w3.org/2000/svg">
<rect width="262" height="54" rx="27" fill="#C72138"/>
<path d="M53.98 31.52H48.74L47.9 34H44.32L49.4 19.96H53.36L58.44 34H54.82L53.98 31.52ZM53.1 28.88L51.36 23.74L49.64 28.88H53.1ZM64.2261 22.68C65.0128 22.68 65.6994 22.84 66.2861 23.16C66.8861 23.48 67.3461 23.9 67.6661 24.42V22.84H71.0861V33.98C71.0861 35.0067 70.8794 35.9333 70.4661 36.76C70.0661 37.6 69.4461 38.2667 68.6061 38.76C67.7794 39.2533 66.7461 39.5 65.5061 39.5C63.8528 39.5 62.5128 39.1067 61.4861 38.32C60.4594 37.5467 59.8728 36.4933 59.7261 35.16H63.1061C63.2128 35.5867 63.4661 35.92 63.8661 36.16C64.2661 36.4133 64.7594 36.54 65.3461 36.54C66.0528 36.54 66.6128 36.3333 67.0261 35.92C67.4528 35.52 67.6661 34.8733 67.6661 33.98V32.4C67.3328 32.92 66.8728 33.3467 66.2861 33.68C65.6994 34 65.0128 34.16 64.2261 34.16C63.3061 34.16 62.4728 33.9267 61.7261 33.46C60.9794 32.98 60.3861 32.3067 59.9461 31.44C59.5194 30.56 59.3061 29.5467 59.3061 28.4C59.3061 27.2533 59.5194 26.2467 59.9461 25.38C60.3861 24.5133 60.9794 23.8467 61.7261 23.38C62.4728 22.9133 63.3061 22.68 64.2261 22.68ZM67.6661 28.42C67.6661 27.5667 67.4261 26.8933 66.9461 26.4C66.4794 25.9067 65.9061 25.66 65.2261 25.66C64.5461 25.66 63.9661 25.9067 63.4861 26.4C63.0194 26.88 62.7861 27.5467 62.7861 28.4C62.7861 29.2533 63.0194 29.9333 63.4861 30.44C63.9661 30.9333 64.5461 31.18 65.2261 31.18C65.9061 31.18 66.4794 30.9333 66.9461 30.44C67.4261 29.9467 67.6661 29.2733 67.6661 28.42ZM84.0803 28.24C84.0803 28.56 84.0603 28.8933 84.0203 29.24H76.2803C76.3336 29.9333 76.5536 30.4667 76.9403 30.84C77.3403 31.2 77.827 31.38 78.4003 31.38C79.2536 31.38 79.847 31.02 80.1803 30.3H83.8203C83.6336 31.0333 83.2936 31.6933 82.8003 32.28C82.3203 32.8667 81.7136 33.3267 80.9803 33.66C80.247 33.9933 79.427 34.16 78.5203 34.16C77.427 34.16 76.4536 33.9267 75.6003 33.46C74.747 32.9933 74.0803 32.3267 73.6003 31.46C73.1203 30.5933 72.8803 29.58 72.8803 28.42C72.8803 27.26 73.1136 26.2467 73.5803 25.38C74.0603 24.5133 74.727 23.8467 75.5803 23.38C76.4336 22.9133 77.4136 22.68 78.5203 22.68C79.6003 22.68 80.5603 22.9067 81.4003 23.36C82.2403 23.8133 82.8936 24.46 83.3603 25.3C83.8403 26.14 84.0803 27.12 84.0803 28.24ZM80.5803 27.34C80.5803 26.7533 80.3803 26.2867 79.9803 25.94C79.5803 25.5933 79.0803 25.42 78.4803 25.42C77.907 25.42 77.4203 25.5867 77.0203 25.92C76.6336 26.2533 76.3936 26.7267 76.3003 27.34H80.5803ZM92.6845 22.72C93.9912 22.72 95.0312 23.1467 95.8045 24C96.5912 24.84 96.9845 26 96.9845 27.48V34H93.5845V27.94C93.5845 27.1933 93.3912 26.6133 93.0045 26.2C92.6179 25.7867 92.0979 25.58 91.4445 25.58C90.7912 25.58 90.2712 25.7867 89.8845 26.2C89.4979 26.6133 89.3045 27.1933 89.3045 27.94V34H85.8845V22.84H89.3045V24.32C89.6512 23.8267 90.1179 23.44 90.7045 23.16C91.2912 22.8667 91.9512 22.72 92.6845 22.72ZM98.6811 28.4C98.6811 27.2533 98.8944 26.2467 99.3211 25.38C99.7611 24.5133 100.354 23.8467 101.101 23.38C101.848 22.9133 102.681 22.68 103.601 22.68C104.334 22.68 105.001 22.8333 105.601 23.14C106.214 23.4467 106.694 23.86 107.041 24.38V19.2H110.461V34H107.041V32.4C106.721 32.9333 106.261 33.36 105.661 33.68C105.074 34 104.388 34.16 103.601 34.16C102.681 34.16 101.848 33.9267 101.101 33.46C100.354 32.98 99.7611 32.3067 99.3211 31.44C98.8944 30.56 98.6811 29.5467 98.6811 28.4ZM107.041 28.42C107.041 27.5667 106.801 26.8933 106.321 26.4C105.854 25.9067 105.281 25.66 104.601 25.66C103.921 25.66 103.341 25.9067 102.861 26.4C102.394 26.88 102.161 27.5467 102.161 28.4C102.161 29.2533 102.394 29.9333 102.861 30.44C103.341 30.9333 103.921 31.18 104.601 31.18C105.281 31.18 105.854 30.9333 106.321 30.44C106.801 29.9467 107.041 29.2733 107.041 28.42ZM123.455 28.24C123.455 28.56 123.435 28.8933 123.395 29.24H115.655C115.709 29.9333 115.929 30.4667 116.315 30.84C116.715 31.2 117.202 31.38 117.775 31.38C118.629 31.38 119.222 31.02 119.555 30.3H123.195C123.009 31.0333 122.669 31.6933 122.175 32.28C121.695 32.8667 121.089 33.3267 120.355 33.66C119.622 33.9933 118.802 34.16 117.895 34.16C116.802 34.16 115.829 33.9267 114.975 33.46C114.122 32.9933 113.455 32.3267 112.975 31.46C112.495 30.5933 112.255 29.58 112.255 28.42C112.255 27.26 112.489 26.2467 112.955 25.38C113.435 24.5133 114.102 23.8467 114.955 23.38C115.809 22.9133 116.789 22.68 117.895 22.68C118.975 22.68 119.935 22.9067 120.775 23.36C121.615 23.8133 122.269 24.46 122.735 25.3C123.215 26.14 123.455 27.12 123.455 28.24ZM119.955 27.34C119.955 26.7533 119.755 26.2867 119.355 25.94C118.955 25.5933 118.455 25.42 117.855 25.42C117.282 25.42 116.795 25.5867 116.395 25.92C116.009 26.2533 115.769 26.7267 115.675 27.34H119.955ZM134.038 34.16C133.064 34.16 132.198 33.9933 131.438 33.66C130.678 33.3267 130.078 32.8733 129.638 32.3C129.198 31.7133 128.951 31.06 128.898 30.34H132.278C132.318 30.7267 132.498 31.04 132.818 31.28C133.138 31.52 133.531 31.64 133.998 31.64C134.424 31.64 134.751 31.56 134.978 31.4C135.218 31.2267 135.338 31.0067 135.338 30.74C135.338 30.42 135.171 30.1867 134.838 30.04C134.504 29.88 133.964 29.7067 133.218 29.52C132.418 29.3333 131.751 29.14 131.218 28.94C130.684 28.7267 130.224 28.4 129.838 27.96C129.451 27.5067 129.258 26.9 129.258 26.14C129.258 25.5 129.431 24.92 129.778 24.4C130.138 23.8667 130.658 23.4467 131.338 23.14C132.031 22.8333 132.851 22.68 133.798 22.68C135.198 22.68 136.298 23.0267 137.098 23.72C137.911 24.4133 138.378 25.3333 138.498 26.48H135.338C135.284 26.0933 135.111 25.7867 134.818 25.56C134.538 25.3333 134.164 25.22 133.698 25.22C133.298 25.22 132.991 25.3 132.778 25.46C132.564 25.6067 132.458 25.8133 132.458 26.08C132.458 26.4 132.624 26.64 132.958 26.8C133.304 26.96 133.838 27.12 134.558 27.28C135.384 27.4933 136.058 27.7067 136.578 27.92C137.098 28.12 137.551 28.4533 137.938 28.92C138.338 29.3733 138.544 29.9867 138.558 30.76C138.558 31.4133 138.371 32 137.998 32.52C137.638 33.0267 137.111 33.4267 136.418 33.72C135.738 34.0133 134.944 34.16 134.038 34.16ZM151.67 22.84V34H148.25V32.48C147.903 32.9733 147.43 33.3733 146.83 33.68C146.243 33.9733 145.59 34.12 144.87 34.12C144.017 34.12 143.263 33.9333 142.61 33.56C141.957 33.1733 141.45 32.62 141.09 31.9C140.73 31.18 140.55 30.3333 140.55 29.36V22.84H143.95V28.9C143.95 29.6467 144.143 30.2267 144.53 30.64C144.917 31.0533 145.437 31.26 146.09 31.26C146.757 31.26 147.283 31.0533 147.67 30.64C148.057 30.2267 148.25 29.6467 148.25 28.9V22.84H151.67ZM153.447 28.4C153.447 27.2533 153.66 26.2467 154.087 25.38C154.527 24.5133 155.12 23.8467 155.867 23.38C156.613 22.9133 157.447 22.68 158.367 22.68C159.153 22.68 159.84 22.84 160.427 23.16C161.027 23.48 161.487 23.9 161.807 24.42V22.84H165.227V34H161.807V32.42C161.473 32.94 161.007 33.36 160.407 33.68C159.82 34 159.133 34.16 158.347 34.16C157.44 34.16 156.613 33.9267 155.867 33.46C155.12 32.98 154.527 32.3067 154.087 31.44C153.66 30.56 153.447 29.5467 153.447 28.4ZM161.807 28.42C161.807 27.5667 161.567 26.8933 161.087 26.4C160.62 25.9067 160.047 25.66 159.367 25.66C158.687 25.66 158.107 25.9067 157.627 26.4C157.16 26.88 156.927 27.5467 156.927 28.4C156.927 29.2533 157.16 29.9333 157.627 30.44C158.107 30.9333 158.687 31.18 159.367 31.18C160.047 31.18 160.62 30.9333 161.087 30.44C161.567 29.9467 161.807 29.2733 161.807 28.42ZM171.259 28.4C171.259 27.2533 171.473 26.2467 171.899 25.38C172.339 24.5133 172.933 23.8467 173.679 23.38C174.426 22.9133 175.259 22.68 176.179 22.68C176.966 22.68 177.653 22.84 178.239 23.16C178.839 23.48 179.299 23.9 179.619 24.42V22.84H183.039V34H179.619V32.42C179.286 32.94 178.819 33.36 178.219 33.68C177.633 34 176.946 34.16 176.159 34.16C175.253 34.16 174.426 33.9267 173.679 33.46C172.933 32.98 172.339 32.3067 171.899 31.44C171.473 30.56 171.259 29.5467 171.259 28.4ZM179.619 28.42C179.619 27.5667 179.379 26.8933 178.899 26.4C178.433 25.9067 177.859 25.66 177.179 25.66C176.499 25.66 175.919 25.9067 175.439 26.4C174.973 26.88 174.739 27.5467 174.739 28.4C174.739 29.2533 174.973 29.9333 175.439 30.44C175.919 30.9333 176.499 31.18 177.179 31.18C177.859 31.18 178.433 30.9333 178.899 30.44C179.379 29.9467 179.619 29.2733 179.619 28.42ZM196.533 22.84V34H193.113V32.48C192.767 32.9733 192.293 33.3733 191.693 33.68C191.107 33.9733 190.453 34.12 189.733 34.12C188.88 34.12 188.127 33.9333 187.473 33.56C186.82 33.1733 186.313 32.62 185.953 31.9C185.593 31.18 185.413 30.3333 185.413 29.36V22.84H188.813V28.9C188.813 29.6467 189.007 30.2267 189.393 30.64C189.78 31.0533 190.3 31.26 190.953 31.26C191.62 31.26 192.147 31.0533 192.533 30.64C192.92 30.2267 193.113 29.6467 193.113 28.9V22.84H196.533ZM202.41 19.2V34H198.99V19.2H202.41ZM204.208 28.4C204.208 27.2533 204.422 26.2467 204.848 25.38C205.288 24.5133 205.882 23.8467 206.628 23.38C207.375 22.9133 208.208 22.68 209.128 22.68C209.915 22.68 210.602 22.84 211.188 23.16C211.788 23.48 212.248 23.9 212.568 24.42V22.84H215.988V34H212.568V32.42C212.235 32.94 211.768 33.36 211.168 33.68C210.582 34 209.895 34.16 209.108 34.16C208.202 34.16 207.375 33.9267 206.628 33.46C205.882 32.98 205.288 32.3067 204.848 31.44C204.422 30.56 204.208 29.5467 204.208 28.4ZM212.568 28.42C212.568 27.5667 212.328 26.8933 211.848 26.4C211.382 25.9067 210.808 25.66 210.128 25.66C209.448 25.66 208.868 25.9067 208.388 26.4C207.922 26.88 207.688 27.5467 207.688 28.4C207.688 29.2533 207.922 29.9333 208.388 30.44C208.868 30.9333 209.448 31.18 210.128 31.18C210.808 31.18 211.382 30.9333 211.848 30.44C212.328 29.9467 212.568 29.2733 212.568 28.42Z" fill="#F5F5F5"/>
</svg>
